#!OML:ASF E:\Steps\Project 1\Capture day 1\Session 2\Subject.ASF
:FULLY-SPECIFIED
:DEGREES
370
root 10.2386 12.1704 5.11843 -159.09 2.83888 175.654
lowerback 10.1889 -0.799467 -5.17481
upperback 5.91857 -0.831508 -1.38954
thorax 0.538499 -0.239638 1.54617
lowerneck 0.0152131 -1.77353 -3.81829
upperneck 3.80496 -2.45543 8.82908
head 1.38984 -1.09081 3.51382
rclavicle -6.4605e-015 -1.15295e-014
rhumerus -18.2854 -4.84477 -78.1391
rradius 41.4194
rwrist 4.42991
rhand -10.3083 -58.9309
rfingers 7.12502
rthumb 15.6867 -88.315
lclavicle -6.4605e-015 -1.15295e-014
lhumerus -24.9895 -7.97383 72.6745
lradius 40.9911
lwrist 4.361
lhand -33.6057 -13.9557
lfingers 7.12502
lthumb -6.79898 15.9151
rfemur -88.0762 4.92937 11.3517
rtibia 89.5981
rfoot 129.039 -80.1032
rtoes -36.3092
lfemur -87.8449 -2.05141 -19.1411
ltibia 89.7525
lfoot -27.9645 78.8546
ltoes -43.1162
371
root 10.2324 11.9322 5.01061 -159.325 3.22724 175.748
lowerback 10.4224 -0.585569 -4.79478
upperback 6.16914 -0.471819 -1.58022
thorax 0.642098 -0.0328391 1.10346
lowerneck -0.312546 -1.62204 -4.16814
upperneck 4.21566 -2.26604 8.90454
head 1.57649 -0.984746 3.61288
rclavicle -2.08724e-015 -1.15295e-014
rhumerus -15.631 -2.86214 -79.2691
rradius 41.9481
rwrist 3.91086
rhand -10.2673 -58.3862
rfingers 7.12502
rthumb 15.7263 -87.7673
lclavicle -2.08724e-015 -1.15295e-014
lhumerus -21.4445 -8.83588 72.0445
lradius 40.9739
lwrist 2.6552
lhand -33.268 -13.9734
lfingers 7.12502
lthumb -6.4729 15.9077
rfemur -89.3176 5.18888 11.8289
rtibia 87.7304
rfoot 150.149 -58.7151
rtoes -35.7254
lfemur -88.8598 -1.6925 -19.1524
ltibia 88.8721
lfoot -177.352 74.9623
ltoes -44.9657
372
root 10.2222 11.7075 4.90738 -159.485 3.53322 175.903
lowerback 10.6504 -0.366332 -4.27057
upperback 6.31787 -0.114377 -1.68998
thorax 0.647202 0.171473 0.662564
lowerneck -0.610071 -1.49656 -4.54613
upperneck 4.39014 -2.10086 8.98483
head 1.68329 -0.899101 3.71884
rclavicle 2.08724e-015 1.83876e-014
rhumerus -13.1679 -0.922292 -80.0438
rradius 42.4636
rwrist 3.53121
rhand -9.68786 -58.5679
rfingers 7.12502
rthumb 16.2842 -87.9041
lclavicle 2.08724e-015 1.83876e-014
lhumerus -17.9544 -9.54304 71.6468
lradius 40.8915
lwrist 1.52581
lhand -33.0497 -14.0427
lfingers 7.12502
lthumb -6.2622 15.8447
rfemur -90.1205 5.34207 12.4411
rtibia 84.5852
rfoot 152.707 -36.0293
rtoes -35.8833
lfemur -89.6863 -1.2493 -19.2689
ltibia 86.0343
lfoot -186.537 50.012
ltoes -45.3485
373
root 10.2012 11.4918 4.79746 -159.66 3.96615 175.853
lowerback 10.7863 -0.16159 -3.97461
upperback 6.46511 0.208269 -1.76821
thorax 0.712439 0.35047 0.38418
lowerneck -0.996658 -1.39236 -4.88449
upperneck 4.37986 -1.95479 9.02507
head 1.74551 -0.827134 3.80192
rclavicle -6.55989e-015 1.0635e-014
rhumerus -10.7254 0.902008 -80.5017
rradius 42.993
rwrist 3.36631
rhand -8.86641 -58.7387
rfingers 7.12502
rthumb 17.075 -88.0083
lclavicle -6.55989e-015 1.0635e-014
lhumerus -14.7561 -9.91725 71.5207
lradius 40.9562
lwrist 0.854176
lhand -33.2333 -14.4707
lfingers 7.12502
lthumb -6.43947 15.4114
rfemur -90.536 5.42045 12.7939
rtibia 81.2058
rfoot 152.553 -13.0611
rtoes -36.4371
lfemur -90.2606 -0.910871 -19.6297
ltibia 82.5086
lfoot -189.986 25.0508
ltoes -43.5993
374
root 10.1811 11.2829 4.6857 -159.707 4.22778 175.848
lowerback 10.6826 -0.0291618 -3.57969
upperback 6.59735 0.444199 -1.81865
thorax 0.897839 0.482653 0.0895075
lowerneck -1.33331 -1.34487 -5.02056
upperneck 4.34759 -1.88357 9.02934
head 1.79307 -0.789836 3.83147
rclavicle -5.44173e-015 4.42296e-015
rhumerus -8.41591 2.28218 -80.8897
rradius 43.5608
rwrist 3.63182
rhand -8.41739 -58.4899
rfingers 7.12502
rthumb 17.5072 -87.7216
lclavicle -5.44173e-015 4.42296e-015
lhumerus -11.9638 -10.4811 71.329
lradius 41.4043
lwrist 0.591503
lhand -33.5704 -14.5097
lfingers 7.12502
lthumb -6.76486 15.3622
rfemur -90.7268 5.35697 13.169
rtibia 78.8189
rfoot 151.43 9.63461
rtoes -35.8008
lfemur -90.8959 -0.731261 -19.9094
ltibia 79.6571
lfoot -194.236 0.0465898
ltoes -42.473
375
root 10.161 11.0833 4.57841 -159.588 4.27365 175.708
lowerback 10.5386 0.0538073 -3.22098
upperback 6.49647 0.566903 -1.89553
thorax 0.866494 0.548101 -0.20202
lowerneck -1.24192 -1.32445 -5.05938
upperneck 4.20595 -1.85101 9.04022
head 1.72811 -0.778644 3.84207
rclavicle 8.39865e-015 1.53437e-014
rhumerus -6.69669 3.24092 -81.2213
rradius 44.0505
rwrist 4.2476
rhand -8.53882 -57.4574
rfingers 7.12502
rthumb 17.3903 -86.6994
lclavicle 8.39865e-015 1.53437e-014
lhumerus -9.67464 -11.3103 71.126
lradius 41.9694
lwrist 0.761258
lhand -33.7904 -14.1278
lfingers 7.12502
lthumb -6.97723 15.7372
rfemur -90.8876 5.02635 13.3257
rtibia 77.268
rfoot 147.866 10.3793
rtoes -34.9265
lfemur -91.6668 -0.800874 -20.3357
ltibia 77.6307
lfoot -196.544 -0.538544
ltoes -42.9155
376
root 10.145 10.8933 4.47255 -159.385 4.21757 175.534
lowerback 10.5539 0.0898278 -3.09332
upperback 6.16226 0.559265 -1.90314
thorax 0.507343 0.532151 -0.283832
lowerneck -0.83586 -1.28273 -5.00812
upperneck 3.92489 -1.78937 8.99354
head 1.55561 -0.76089 3.81362
rclavicle 5.06901e-015 -7.00716e-015
rhumerus -5.45905 4.18568 -81.5475
rradius 44.6604
rwrist 4.15756
rhand -9.35649 -55.2851
rfingers 7.12502
rthumb 16.6033 -84.5949
lclavicle 5.06901e-015 -7.00716e-015
lhumerus -7.83986 -11.8023 71.0721
lradius 42.4453
lwrist 1.26568
lhand -33.9499 -14.3668
lfingers 7.12502
lthumb -7.1312 15.4931
rfemur -90.9833 4.67878 13.2941
rtibia 75.7245
rfoot 143.846 10.7466
rtoes -33.2632
lfemur -92.3977 -0.94986 -20.7794
ltibia 75.8058
lfoot -199.085 -0.812671
ltoes -41.5065
377
root 10.1434 10.7115 4.36226 -159.287 4.07206 175.588
lowerback 10.7604 0.0795152 -3.07661
upperback 5.81226 0.471887 -1.73271
thorax 0.0282477 0.471247 -0.113212
lowerneck -0.369403 -1.23108 -4.98311
upperneck 3.60549 -1.71432 8.9175
head 1.35957 -0.739898 3.78039
rclavicle -1.2921e-015 -6.95746e-015
rhumerus -4.44218 5.22145 -81.9058
rradius 45.8741
rwrist 2.69014
rhand -9.22281 -59.157
rfingers 7.12502
rthumb 16.732 -88.4559
lclavicle -1.2921e-015 -6.95746e-015
lhumerus -6.32907 -12.0163 71.0928
lradius 43.1484
lwrist 2.31974
lhand -33.9793 -15.0174
lfingers 7.12502
lthumb -7.15957 14.8415
rfemur -90.848 4.60235 13.4124
rtibia 74.3016
rfoot 139.977 11.0407
rtoes -31.0226
lfemur -92.8816 -0.996527 -21.0218
ltibia 74.1906
lfoot -201.58 -1.27941
ltoes -41.1524
378
root 10.1464 10.5401 4.25682 -159.195 3.96414 175.708
lowerback 11.1255 0.0792256 -3.12364
upperback 5.39151 0.379861 -1.50795
thorax -0.609837 0.407051 0.149113
lowerneck 0.118979 -1.20393 -4.99021
upperneck 3.22242 -1.67155 8.84871
head 1.14324 -0.737287 3.75605
rclavicle 1.3418e-014 4.77083e-015
rhumerus -3.83997 6.1124 -82.2594
rradius 47.0847
rwrist 1.87029
rhand -11.0959 -58.5743
rfingers 7.12502
rthumb 14.9281 -88.0163
lclavicle 1.3418e-014 4.77083e-015
lhumerus -5.22121 -12.3455 71.1797
lradius 43.6208
lwrist 2.20892
lhand -34.4958 -16.4096
lfingers 7.12502
lthumb -7.65812 13.4317
rfemur -90.9179 4.71844 13.5616
rtibia 72.795
rfoot 137.219 11.6802
rtoes -30.2931
lfemur -93.1609 -0.841065 -21.3229
ltibia 72.9275
lfoot -203.754 -2.04655
ltoes -41.8899
379
root 10.1409 10.3821 4.16435 -158.881 3.9262 175.499
lowerback 11.4508 0.0732102 -3.32057
upperback 4.87066 0.258219 -1.48888
thorax -1.32713 0.330689 0.287782
lowerneck 0.485819 -1.21152 -4.89833
upperneck 2.82471 -1.67215 8.77481
head 0.947014 -0.752486 3.71088
rclavicle 4.27387e-015 -1.10325e-014
rhumerus -3.38626 6.75362 -82.7246
rradius 48.5053
rwrist 0.713368
rhand -9.45551 -61.2007
rfingers 7.12502
rthumb 16.5079 90.5185
lclavicle 4.27387e-015 -1.10325e-014
lhumerus -4.17478 -12.6318 71.2091
lradius 44.2251
lwrist 2.06819
lhand -34.0167 -17.6149
lfingers 7.12502
lthumb -7.1957 12.2427
rfemur -91.7219 4.6612 13.3343
rtibia 70.9919
rfoot 135.698 12.0869
rtoes -30.6488
lfemur -93.7687 -0.998652 -21.7274
ltibia 71.4745
lfoot -206.079 -1.93303
ltoes -38.5432
380
root 10.1278 10.2376 4.07198 -158.498 3.93836 175.131
lowerback 11.5961 0.0727 -3.4422
upperback 4.47424 0.179987 -1.65762
thorax -1.81698 0.285102 0.187588
lowerneck 0.59047 -1.22886 -4.78678
upperneck 2.55168 -1.68515 8.72508
head 0.839412 -0.765659 3.67082
rclavicle -2.78299e-015 2.88238e-015
rhumerus -2.64085 6.97582 -83.2641
rradius 49.0393
rwrist 0.675672
rhand -9.3162 -60.2146
rfingers 7.12502
rthumb 16.642 270.479
lclavicle -2.78299e-015 2.88238e-015
lhumerus -2.90967 -13.0379 71.073
lradius 44.7522
lwrist 1.89437
lhand -32.9464 -18.5086
lfingers 7.12502
lthumb -6.16246 11.3818
rfemur -92.9796 4.53569 12.8734
rtibia 69.0578
rfoot 135.146 11.9114
rtoes -30.6926
lfemur -94.4296 -1.26013 -22.2593
ltibia 70.0923
lfoot -207.947 -0.920917
ltoes -32.9662
381
root 10.1164 10.1029 3.98201 -158.29 3.80518 175.023
lowerback 11.8169 0.0701743 -3.28288
upperback 4.2616 0.154509 -1.67835
thorax -2.15932 0.270838 0.0772159
lowerneck 0.546154 -1.23407 -4.74703
upperneck 2.38331 -1.68444 8.68851
head 0.792162 -0.768149 3.64952
rclavicle -3.97569e-016 8.64713e-015
rhumerus -1.68261 7.13513 -83.5915
rradius 49.476
rwrist 0.215641
rhand -9.247 -59.7534
rfingers 7.12502
rthumb 16.7087 270.946
lclavicle -3.97569e-016 8.64713e-015
lhumerus -1.61095 -13.5678 71.0258
lradius 45.1467
lwrist 1.46919
lhand -32.752 -18.2815
lfingers 7.12502
lthumb -5.97474 11.6142
rfemur -94.1996 4.50109 12.7614
rtibia 67.0806
rfoot 135.201 11.8861
rtoes -30.9781
lfemur -95.0855 -1.48288 -22.5098
ltibia 68.5844
lfoot -209.042 0.773437
ltoes -24.5816
382
root 10.1101 9.97941 3.89899 -158.295 3.44429 175.058
lowerback 12.3033 0.0168959 -2.97838
upperback 4.14814 0.0899066 -1.57107
thorax -2.54249 0.241812 0.0225788
lowerneck 0.483634 -1.25699 -4.73806
upperneck 2.28395 -1.71056 8.66725
head 0.772929 -0.78258 3.63958
rclavicle -4.07509e-015 -1.93815e-014
rhumerus -0.649715 7.33805 -83.7397
rradius 49.7764
rwrist -0.242887
rhand -9.66599 -59.5796
rfingers 7.12502
rthumb 16.3053 271.086
lclavicle -4.07509e-015 -1.93815e-014
lhumerus -0.466379 -14.0871 71.0962
lradius 45.4432
lwrist 1.03414
lhand -34.0657 -19.2573
lfingers 7.12502
lthumb -7.24297 10.5988
rfemur -95.1542 4.42633 12.9855
rtibia 65.2277
rfoot 135.403 12.5888
rtoes -32.7834
lfemur -95.6158 -1.74793 -22.4722
ltibia 67.0911
lfoot -209.628 2.32201
ltoes -16.5754
383
root 10.1052 9.87012 3.81369 -158.357 3.0777 175.251
lowerback 12.8154 -0.0515629 -2.53841
upperback 4.05238 0.0285808 -1.45743
thorax -2.92196 0.21407 -0.10132
lowerneck 0.495303 -1.28746 -4.68208
upperneck 2.25393 -1.74987 8.64572
head 0.763172 -0.802621 3.62078
rclavicle 4.47266e-015 5.96354e-016
rhumerus 0.384922 7.42246 -83.9725
rradius 49.7899
rwrist -0.234573
rhand -9.89583 -59.542
rfingers 7.12502
rthumb 16.084 271.105
lclavicle 4.47266e-015 5.96354e-016
lhumerus 0.330999 -14.6313 71.0798
lradius 45.9488
lwrist 0.88422
lhand -33.6516 -18.4374
lfingers 7.12502
lthumb -6.84323 11.432
rfemur -95.7608 4.42613 13.3901
rtibia 63.8324
rfoot 135.737 13.5996
rtoes -35.3071
lfemur -96.1349 -1.98294 -22.2036
ltibia 65.541
lfoot -210.064 2.75496
ltoes -15.7872
384
root 10.1004 9.76976 3.72837 -158.309 2.83073 175.484
lowerback 13.0923 -0.131125 -2.14228
upperback 3.93761 -0.0480132 -1.3562
thorax -3.19366 0.173214 -0.209054
lowerneck 0.618581 -1.2716 -4.64714
upperneck 2.2953 -1.73148 8.61739
head 0.752384 -0.794555 3.60484
rclavicle 2.48481e-015 1.78906e-015
rhumerus 1.26108 7.56495 -84.323
rradius 49.6106
rwrist -0.0592072
rhand -9.65824 -59.7762
rfingers 7.12502
rthumb 16.3127 270.89
lclavicle 2.48481e-015 1.78906e-015
lhumerus 0.850269 -15.1151 70.9891
lradius 46.475
lwrist 0.578345
lhand -33.5481 -17.9759
lfingers 7.12502
lthumb -6.7433 11.8967
rfemur -96.2279 4.45242 13.8403
rtibia 62.1582
rfoot 135.191 13.6338
rtoes -35.0487
lfemur -96.8123 -2.11437 -21.8759
ltibia 64.0642
lfoot -210.034 3.24597
ltoes -13.5255
